# xmcd
#
# Track frame offsets:
#	150
#	15244
#	25671
#	46073
#	60624
#	74275
#	87885
#	109037
#	126814
#	140242
#	154570
#	170323
#	183450
#	197852
#	213529
#	241880
#
# Disc length: 3240 seconds
#
# Revision: 1
# Processed by: cddbd v1.5.2PL0 Copyright (c) Steve Scherf et al.
# Submitted via: audiograbber 1.83.01
#
DISCID=d30ca610
DTITLE=Willie Nelson - CB90215
DYEAR=1900
DGENRE=Karaoke
TTITLE0=WILLIE NELSON - My Heroes Have Always Been Cowboys
TTITLE1=WILLIE NELSON - If You've Got The Money Ive Got The Time
TTITLE2=WILLIE NELSON - Georgia On My Mind
TTITLE3=WILLIE NELSON - Heartbreak Hotel
TTITLE4=WILLIE NELSON - Midnight Rider
TTITLE5=WILLIE NELSON - Just To Satisfy You
TTITLE6=WILLIE NELSON - Last Thing I Needed First Thing This Morning
TTITLE7=WILLIE NELSON - Seven Spanish angels
TTITLE8=WILLIE NELSON - Forgiving You Was Easy
TTITLE9=WILLIE NELSON - Highwayman
TTITLE10=WILLIE NELSON - Nothing i Can Do About It Now
TTITLE11=WILLIE NELSON - Willingly
TTITLE12=WILLIE NELSON - Remember Me
TTITLE13=WILLIE NELSON - Sweet Memories
TTITLE14=WILLIE NELSON - If You Can Touch Her At All
TTITLE15=DATA - Data
EXTD=
EXTT0=
EXTT1=
EXTT2=
EXTT3=
EXTT4=
EXTT5=
EXTT6=
EXTT7=
EXTT8=
EXTT9=
EXTT10=
EXTT11=
EXTT12=
EXTT13=
EXTT14=
EXTT15=
PLAYORDER=
